<?xml version="1.0" encoding="UTF-8"?><svg id="Calque_1" xmlns="http://www.w3.org/2000/svg" viewBox="0 0 50 50"><defs><style>.cls-1{fill:#aed9e0;}</style></defs><path class="cls-1" d="m43.01,7.72c-1.5-2.12-3.54-3.69-6.12-4.72-2.23-.89-5.7-1.33-10.39-1.33v3.69c1.12.16,2,.56,2.67,1.2.48.43.8.91.96,1.44.16.52.24,1.32.24,2.39v10.94c0,1.5-.24,2.7-.72,3.59-.3.52-.64.91-1.04,1.16-.4.25-1.09.49-2.07.72v3.66c4.33,0,7.64-.42,9.95-1.26,2.78-1.05,4.94-2.68,6.49-4.89,1.55-2.23,2.32-5.1,2.32-8.61,0-3.14-.76-5.8-2.29-7.96Z"/><path class="cls-1" d="m26.5,48.33v-3.83c1.61-.21,2.88-.43,3.81-.68.94-.25,1.83-.62,2.68-1.09,1.38-.75,2.64-1.79,3.79-3.11,1.15-1.32,2.08-2.79,2.81-4.41.52-1.25,1.01-2.08,1.45-2.48.44-.4,1.09-.6,1.94-.6.92,0,1.59.26,2.02.79.2.25.3.75.3,1.5v13.91h-18.8Z"/><path class="cls-1" d="m23.63,41.83V1.67H7.54c-.82,0-1.45.15-1.9.46s-.67.75-.67,1.32c0,.93.46,1.55,1.37,1.85.75.25,1.19.4,1.32.46.12.06.26.19.39.39.27.36.41.95.41,1.74v34.21c0,.8-.14,1.38-.41,1.74-.14.21-.27.34-.39.39-.13.06-.56.21-1.32.46-.91.3-1.37.91-1.37,1.85,0,.57.22,1.01.67,1.32s1.08.46,1.9.46h16.1v-6.49Z"/></svg>