<?xml version="1.0" encoding="UTF-8"?><svg id="Calque_1" xmlns="http://www.w3.org/2000/svg" viewBox="0 0 360.89 79.11"><defs><style>.cls-1{fill:#aed9e0;}</style></defs><path d="m63.79,26.3v46.66h-16.1c-.82,0-1.45-.15-1.9-.46s-.67-.75-.67-1.32c0-.93.46-1.55,1.37-1.85.75-.25,1.19-.4,1.32-.46.12-.06.26-.19.39-.39.27-.36.41-.95.41-1.74v-34.21c0-.8-.14-1.38-.41-1.74-.14-.21-.27-.34-.39-.39-.13-.06-.56-.21-1.32-.46-.91-.3-1.37-.91-1.37-1.85,0-.57.22-1.01.67-1.32s1.08-.46,1.9-.46h16.1Zm2.87,24.88v-3.96c1.32-.64,2.3-1.33,2.94-2.08.64-.75,1.1-1.75,1.4-3.01.18-.87.42-1.46.72-1.79.3-.33.72-.5,1.26-.5.73,0,1.23.29,1.5.85.16.3.24.97.24,2.02v13.02c0,1.07-.12,1.81-.36,2.22s-.68.62-1.32.62c-.52,0-.93-.16-1.23-.48-.3-.32-.54-.85-.72-1.61-.39-1.57-.94-2.78-1.66-3.62-.72-.84-1.65-1.4-2.79-1.67Zm.17-24.88h13.77v12.1c0,.71-.14,1.22-.41,1.54-.27.32-.71.48-1.3.48-.5,0-.87-.1-1.09-.31-.23-.21-.44-.63-.65-1.26-.87-2.64-2.14-4.66-3.81-6.05-1.67-1.39-3.85-2.22-6.51-2.5v-4Zm.03,46.66v-3.69c1.48-.23,2.71-.55,3.67-.96.97-.41,1.94-1.04,2.92-1.88.98-.84,1.76-1.71,2.34-2.61.58-.9,1.13-2.09,1.66-3.57.25-.73.51-1.22.79-1.49.27-.26.65-.39,1.13-.39.64,0,1.08.19,1.33.56.25.38.38,1.03.38,1.97v12.07h-14.22Z"/><path d="m104.02,25.38v3.79c-2.01.48-3.01,2.07-3.01,4.79v31.82c0,1.23.17,2.18.51,2.84.3.55.92,1.01,1.88,1.4v3.86c-.73,0-1.4-.06-2-.17-.6-.11-1.41-.34-2.41-.68-2.39-.82-4.56-2.07-6.49-3.76-1.94-1.69-3.53-3.7-4.79-6.05-1.94-3.67-2.91-8.01-2.91-13.02s.87-9.16,2.6-12.92c1.73-3.76,4.22-6.71,7.45-8.85,1.87-1.25,3.87-2.15,6.02-2.7.89-.23,1.94-.34,3.14-.34Zm18.25,41.87c-.91.91-2.12,1.84-3.64,2.79-1.52.95-2.95,1.69-4.29,2.24-1.23.48-2.59.87-4.08,1.16-1.49.3-2.81.44-3.95.44v-3.86c.66-.16,1.16-.35,1.49-.58.33-.23.61-.55.84-.96.39-.71.58-1.61.58-2.7v-9.98c0-.89-.17-1.53-.51-1.91-.16-.23-.32-.37-.48-.43-.16-.06-.68-.19-1.57-.39-1.09-.27-1.64-.91-1.64-1.91,0-.59.26-1.05.77-1.37.51-.32,1.27-.48,2.27-.48h13.64c1.03,0,1.75.14,2.17.43.42.29.63.78.63,1.49,0,.43-.09.79-.26,1.08-.17.29-.48.59-.94.91-.46.32-.74.62-.85.89-.11.27-.17.77-.17,1.5v11.66Zm-15.45-38.14v-3.69c3.71.34,6.77,1.03,9.16,2.05.71.32,1.25.48,1.64.48.36,0,.64-.09.84-.26.19-.17.59-.65,1.18-1.45.41-.57.92-.85,1.54-.85s1.09.18,1.35.53c.26.35.39.94.39,1.76v13.3c0,1.73-.64,2.6-1.91,2.6-.64,0-1.11-.17-1.42-.51s-.6-1.01-.87-2.02c-.34-1.28-.96-2.76-1.85-4.46-.89-1.7-1.74-3.04-2.56-4.02-.93-1.14-1.98-1.98-3.14-2.51-1.16-.54-2.61-.85-4.34-.94Z"/><path class="cls-1" d="m26.82,72.96H10.72c-.82,0-1.45-.15-1.9-.46s-.67-.75-.67-1.32c0-.93.46-1.55,1.37-1.85.75-.25,1.19-.4,1.32-.46.12-.06.26-.19.39-.39.27-.36.41-.95.41-1.74v-34.21c0-.8-.14-1.38-.41-1.74-.14-.21-.27-.34-.39-.39-.13-.06-.56-.21-1.32-.46-.91-.3-1.37-.91-1.37-1.85,0-.57.22-1.01.67-1.32s1.08-.46,1.9-.46h17.29c1,0,1.72.14,2.15.41.59.36.89.84.89,1.44,0,1-.55,1.63-1.64,1.88-.89.21-1.41.34-1.57.41-.16.07-.33.21-.51.41-.34.41-.51,1.05-.51,1.91v40.2Zm2.77,0v-3.83c1.12-.21,2-.43,2.65-.68.65-.25,1.27-.62,1.86-1.09.96-.75,1.83-1.79,2.63-3.11.8-1.32,1.45-2.79,1.95-4.41.36-1.25.7-2.08,1.01-2.48.31-.4.76-.6,1.35-.6.64,0,1.1.26,1.4.79.14.25.21.75.21,1.5v13.91h-13.06Z"/><path class="cls-1" d="m29.59,72.96v-3.83c1.12-.21,2-.43,2.65-.68.65-.25,1.27-.62,1.86-1.09.96-.75,1.83-1.79,2.63-3.11.8-1.32,1.45-2.79,1.95-4.41.36-1.25.7-2.08,1.01-2.48.31-.4.76-.6,1.35-.6.64,0,1.1.26,1.4.79.14.25.21.75.21,1.5v13.91h-13.06Z"/><path class="cls-1" d="m169.04,26.3v40.16c0,.89.17,1.53.51,1.91.18.23.35.37.51.43.16.06.68.2,1.57.43,1.09.25,1.64.88,1.64,1.88,0,.59-.3,1.07-.89,1.44-.43.27-1.15.41-2.15.41h-17.29c-.82,0-1.45-.15-1.9-.46s-.67-.75-.67-1.32c0-.93.46-1.55,1.37-1.85.75-.25,1.19-.4,1.32-.46.12-.06.26-.19.39-.39.27-.36.41-.95.41-1.74v-34.21c0-.8-.14-1.38-.41-1.74-.14-.21-.27-.34-.39-.39-.13-.06-.56-.21-1.32-.46-.91-.3-1.37-.91-1.37-1.85,0-.57.22-1.01.67-1.32s1.08-.46,1.9-.46h16.1Zm2.91,28.78v-3.66c.98-.23,1.67-.47,2.07-.72.4-.25.75-.64,1.04-1.16.48-.89.72-2.08.72-3.59v-10.94c0-1.07-.08-1.87-.24-2.39-.16-.52-.48-1-.96-1.44-.66-.64-1.55-1.04-2.67-1.2v-3.69c4.69,0,8.16.44,10.39,1.33,2.57,1.03,4.61,2.6,6.12,4.72,1.53,2.17,2.29,4.82,2.29,7.96,0,3.51-.78,6.38-2.32,8.61-1.55,2.21-3.71,3.84-6.49,4.89-2.3.84-5.62,1.26-9.95,1.26Z"/><path d="m210.32,26.3v40.16c0,.89.17,1.53.51,1.91.18.23.35.37.51.43.16.06.68.2,1.57.43,1.09.25,1.64.88,1.64,1.88,0,.59-.3,1.07-.89,1.44-.43.27-1.15.41-2.15.41h-17.29c-.82,0-1.45-.15-1.9-.46-.44-.31-.67-.75-.67-1.32,0-.93.46-1.55,1.37-1.85.75-.25,1.19-.4,1.32-.46.12-.06.26-.19.39-.39.27-.36.41-.95.41-1.74v-34.21c0-.8-.14-1.38-.41-1.74-.14-.21-.27-.34-.39-.39-.13-.06-.56-.21-1.32-.46-.91-.3-1.37-.91-1.37-1.85,0-.57.22-1.01.67-1.32.45-.31,1.08-.46,1.9-.46h16.1Zm10.49,23.79c2.1.32,3.71.67,4.84,1.06,1.13.39,2.15.91,3.06,1.57.96.71,1.69,1.55,2.21,2.53.51.98.77,2.02.77,3.11v7.08c0,.73.24,1.09.72,1.09.18,0,.34-.05.46-.15s.3-.3.53-.6c.57-.77,1.15-1.16,1.74-1.16.39,0,.77.21,1.16.62.39.41.58.82.58,1.23,0,.71-.34,1.57-1.01,2.58-.67,1.01-1.51,1.92-2.51,2.72-.93.75-1.95,1.29-3.04,1.62-1.09.33-2.38.5-3.86.5-3.01,0-5.36-.86-7.04-2.58-1.69-1.72-2.53-4.12-2.53-7.19v-5.74c0-1.28-.01-2.02-.03-2.22-.11-.91-.43-1.7-.96-2.36-.66-.8-1.61-1.26-2.84-1.4v-3.66c1.23-.18,2.11-.5,2.63-.96.46-.41.77-.88.94-1.4.17-.52.26-1.3.26-2.32v-9.06c0-1.44-.28-2.51-.84-3.21-.56-.71-1.57-1.26-3.02-1.67v-3.79h.89c2.53,0,4.68.09,6.46.27,2.64.25,5,1.12,7.08,2.6,2.98,2.12,4.48,5.14,4.48,9.06,0,3.21-1,5.84-3.01,7.9-.84.87-1.83,1.57-2.96,2.12-1.13.55-2.84,1.16-5.14,1.85Z"/><path d="m273.38,38.3l3.62,6.02v18.32c0,1.6.27,2.91.8,3.93.53,1.03,1.38,1.87,2.55,2.53l1.03.58c.59.34.89.85.89,1.54,0,.52-.22.96-.65,1.3-.37.3-1.12.44-2.26.44h-7.9c-2.07,0-3.11-.59-3.11-1.78,0-.41.11-.73.32-.97s.69-.56,1.42-.97c2.19-1.21,3.28-3.41,3.28-6.6v-24.34Zm14.32-12l18.18,31.58v15.07h-9.33l-23.21-39.99c-.5-.87-.91-1.47-1.23-1.81-.32-.34-.73-.59-1.23-.75l-1.3-.48c-.34-.11-.62-.32-.82-.62-.21-.3-.31-.63-.31-.99,0-.39.1-.75.31-1.08.21-.33.48-.56.82-.7.39-.16,1.44-.24,3.14-.24h14.97Zm18.18,26.11l-3.62-6.12v-9.47c0-1.91-.28-3.38-.84-4.39-.56-1.01-1.54-1.89-2.96-2.61-.48-.23-.81-.47-.99-.73-.18-.26-.27-.6-.27-1.01,0-.62.2-1.06.6-1.35.4-.28,1.04-.43,1.93-.43h8.54c1.16,0,1.92.18,2.29.55.39.36.58.8.58,1.3s-.11.84-.32,1.08c-.22.24-.74.56-1.56.97-1.21.62-2.12,1.56-2.73,2.84-.43.93-.65,2.2-.65,3.79v15.59Z"/><path d="m313.96,26.3h8.99v4.14c-1.07.62-1.9,1.4-2.5,2.36-.98,1.55-1.64,3.38-1.98,5.5l-.34,2.08c-.11.66-.36,1.18-.74,1.56-.38.38-.85.56-1.42.56s-1.08-.21-1.45-.62c-.38-.41-.56-.95-.56-1.61v-13.98Zm26.93,0v40.16c0,.89.17,1.53.51,1.91.18.23.35.37.51.43.16.06.68.2,1.57.43,1.09.25,1.64.88,1.64,1.88,0,.59-.3,1.07-.89,1.44-.43.27-1.16.41-2.19.41h-17.5c-1,0-1.76-.15-2.27-.46-.51-.31-.77-.77-.77-1.38,0-1,.55-1.63,1.64-1.88.89-.23,1.41-.37,1.57-.43.16-.06.32-.2.48-.43.34-.39.51-1.03.51-1.91V26.3h15.18Zm11.83,0v13.98c0,.66-.19,1.2-.56,1.61-.38.41-.86.62-1.45.62s-1.04-.19-1.42-.56c-.38-.38-.62-.89-.74-1.56l-.34-2.08c-.34-2.12-1-3.95-1.98-5.5-.62-.96-1.45-1.74-2.5-2.36v-4.14h8.99Z"/><path d="m261.39,69.33c-.75-.25-1.19-.4-1.32-.46-.12-.06-.26-.19-.39-.39-.27-.36-.41-.95-.41-1.74v-21.4h-15.18v21.4c0,.8-.14,1.38-.41,1.74-.14.21-.27.34-.39.39-.13.06-.56.21-1.32.46-.91.3-1.37.91-1.37,1.85,0,.57.22,1.01.67,1.32.45.31,1.08.46,1.9.46h17.02c.82,0,1.45-.15,1.9-.46.44-.31.67-.75.67-1.32,0-.93-.46-1.55-1.37-1.85Z"/><rect class="cls-1" x="244.07" y="42.25" width="15.19" height="2.26"/><rect class="cls-1" x="244.07" y="35.75" width="15.19" height="2.26"/><rect class="cls-1" x="244.09" y="39" width="15.19" height="2.26"/><polygon points="241.3 2.25 241.3 12.62 241.3 22.99 248.58 27.96 251.67 33.36 254.76 28.14 262.04 22.99 262.04 12.62 262.04 2.25 241.3 2.25"/></svg>